<?xml version="1.0" encoding="UTF-8" standalone="no"?>
<!-- Created with Inkscape (http://www.inkscape.org/) -->

<svg
   width="256"
   height="256"
   viewBox="0 0 67.733332 67.733333"
   version="1.1"
   id="svg1"
   xml:space="preserve"
   inkscape:version="1.3.2 (091e20e, 2023-11-25, custom)"
   sodipodi:docname="Logo-o.svg"
   inkscape:export-filename="Logo.png"
   inkscape:export-xdpi="96"
   inkscape:export-ydpi="96"
   xmlns:inkscape="http://www.inkscape.org/namespaces/inkscape"
   xmlns:sodipodi="http://sodipodi.sourceforge.net/DTD/sodipodi-0.dtd"
   xmlns="http://www.w3.org/2000/svg"
   xmlns:svg="http://www.w3.org/2000/svg"><sodipodi:namedview
     id="namedview1"
     pagecolor="#505050"
     bordercolor="#ffffff"
     borderopacity="1"
     inkscape:showpageshadow="0"
     inkscape:pageopacity="0"
     inkscape:pagecheckerboard="1"
     inkscape:deskcolor="#d1d1d1"
     inkscape:document-units="mm"
     inkscape:zoom="1.36"
     inkscape:cx="13.970588"
     inkscape:cy="188.60294"
     inkscape:window-width="1366"
     inkscape:window-height="715"
     inkscape:window-x="-8"
     inkscape:window-y="-8"
     inkscape:window-maximized="1"
     inkscape:current-layer="layer1" /><defs
     id="defs1"><inkscape:path-effect
       effect="fillet_chamfer"
       id="path-effect2"
       is_visible="true"
       lpeversion="1"
       nodesatellites_param="F,0,0,1,0,0,0,1 @ F,0,0,1,0,0,0,1 @ F,0,0,1,0,0,0,1 @ F,0,0,1,0,0,0,1 @ F,0,0,1,0,0,0,1 @ F,0,0,1,0,0,0,1 @ F,0,0,1,0,0,0,1 @ F,0,0,1,0,5.8,0,1 @ F,0,0,1,0,0,0,1"
       radius="0"
       unit="px"
       method="auto"
       mode="F"
       chamfer_steps="1"
       flexible="false"
       use_knot_distance="true"
       apply_no_radius="true"
       apply_with_radius="true"
       only_selected="false"
       hide_knots="false" /></defs><g
     inkscape:label="Слой 1"
     inkscape:groupmode="layer"
     id="layer1"><rect
       style="fill:#05bd23;stroke-width:0.264583;fill-opacity:1"
       id="rect3"
       width="60.854168"
       height="60.854168"
       x="3.4395833"
       y="3.4395826"
       rx="7.9375"
       ry="7.9375" /><path
       id="rect1"
       style="fill:#f6f6f6;fill-opacity:1;stroke-width:0.264583"
       d="M 5.8208333,0 C 2.596095,0 0,2.596095 0,5.8208333 V 61.9125 c 0,3.224738 2.596095,5.820833 5.8208333,5.820833 H 37.629643 c 3.224738,0 5.820833,-2.596095 5.820833,-5.820833 0,-3.224738 -2.596095,-5.820833 -5.820833,-5.820833 H 17.441667 a 5.8,5.8 45 0 1 -5.8,-5.8 V 5.8208333 C 11.641667,2.596095 9.0455717,0 5.8208333,0 Z"
       inkscape:path-effect="#path-effect2"
       inkscape:original-d="M 5.8208333,0 C 2.596095,0 0,2.596095 0,5.8208333 V 61.9125 c 0,3.224738 2.596095,5.820833 5.8208333,5.820833 H 37.629643 c 3.224738,0 5.820833,-2.596095 5.820833,-5.820833 0,-3.224738 -2.596095,-5.820833 -5.820833,-5.820833 H 11.641667 V 5.8208333 C 11.641667,2.596095 9.0455717,0 5.8208333,0 Z"
       transform="matrix(0.70312254,0,0,0.70312501,10.054165,10.054165)"
       sodipodi:nodetypes="ssssssscss" /><path
       id="rect2"
       style="fill:#666166;fill-opacity:1;stroke-width:0.186035"
       d="m 30.145892,10.289252 c -2.267387,0 -4.09276,1.825379 -4.09276,4.092773 v 23.440431 c 0,0.02209 0.0029,0.0434 0.0033,0.0654 -0.01774,1.068736 0.380043,2.143017 1.199051,2.962028 1.603285,1.60329 4.18486,1.60329 5.788144,0 l 2.909696,-2.909706 0.0022,-0.0022 1.823646,-1.824016 18.697558,-18.697261 c 1.603284,-1.603289 1.603284,-4.184874 0,-5.788163 -1.603285,-1.60329 -4.18486,-1.60329 -5.788143,0 L 34.238651,28.078501 V 14.382025 c 0,-2.267394 -1.825373,-4.092773 -4.092759,-4.092773 z" /></g></svg>
