<?xml version="1.0" encoding="UTF-8" standalone="no"?>
<!-- Uploaded to: SVG Repo, www.svgrepo.com, Generator: SVG Repo Mixer Tools -->

<svg
        width="100"
        height="100"
        viewBox="0 0 3 3"
   fill="none"
   version="1.1"
   id="svg2"
   sodipodi:docname="clear.svg"
   inkscape:version="1.3.2 (091e20e, 2023-11-25, custom)"
   xmlns:inkscape="http://www.inkscape.org/namespaces/inkscape"
   xmlns:sodipodi="http://sodipodi.sourceforge.net/DTD/sodipodi-0.dtd"
   xmlns="http://www.w3.org/2000/svg"
   xmlns:svg="http://www.w3.org/2000/svg">
  <defs
          id="defs2">
      <inkscape:path-effect
              effect="fillet_chamfer"
              id="path-effect7"
              is_visible="true"
              lpeversion="1"
              nodesatellites_param="F,0,0,1,0,2,0,1 @ F,0,0,1,0,2,0,1 @ F,0,0,1,0,2,0,1 @ F,0,0,1,0,2,0,1"
              radius="0"
              unit="px"
              method="auto"
              mode="F"
              chamfer_steps="1"
              flexible="false"
              use_knot_distance="true"
              apply_no_radius="true"
              apply_with_radius="true"
              only_selected="false"
              hide_knots="false"/>
      <inkscape:path-effect
              effect="fillet_chamfer"
              id="path-effect6"
              is_visible="true"
              lpeversion="1"
              nodesatellites_param="F,0,0,1,0,1.5,0,1 @ F,0,0,1,0,0,0,1 @ F,0,0,1,0,0,0,1 @ F,0,0,1,0,0,0,1 @ F,0,0,1,0,0,0,1 @ F,0,0,1,0,0,0,1 @ F,0,0,1,0,0,0,1 @ F,0,0,1,0,0,0,1 @ F,0,0,1,0,0,0,1 @ F,0,0,1,0,1.5,0,1"
              radius="0"
              unit="px"
              method="auto"
              mode="F"
              chamfer_steps="1"
              flexible="false"
              use_knot_distance="true"
              apply_no_radius="true"
              apply_with_radius="true"
              only_selected="false"
              hide_knots="false"/>
      <inkscape:path-effect
              effect="fillet_chamfer"
              id="path-effect5"
              is_visible="true"
              lpeversion="1"
              nodesatellites_param="F,0,0,1,0,0,0,1 @ F,0,0,1,0,0,0,1 @ F,0,0,1,0,0,0,1 @ F,0,0,1,0,0,0,1 @ F,0,0,1,0,0,0,1 @ F,0,0,1,0,0,0,1 @ F,0,0,1,0,0,0,1 @ F,0,0,1,0,0,0,1 @ F,0,0,1,0,0,0,1 @ F,0,0,1,0,0,0,1"
              radius="0"
              unit="px"
              method="auto"
              mode="F"
              chamfer_steps="1"
              flexible="false"
              use_knot_distance="true"
              apply_no_radius="true"
              apply_with_radius="true"
              only_selected="false"
              hide_knots="false"/>
      <inkscape:path-effect
              effect="fillet_chamfer"
              id="path-effect4"
              is_visible="true"
              lpeversion="1"
              nodesatellites_param="F,0,0,1,0,0,0,1 @ F,0,0,1,0,0,0,1 @ F,0,0,1,0,0,0,1 @ F,0,0,1,0,0,0,1 @ F,0,0,1,0,0,0,1 @ F,0,0,1,0,0,0,1 @ F,0,0,1,0,0,0,1 @ F,0,0,1,0,0,0,1 @ F,0,0,1,0,0,0,1 @ F,0,0,1,0,0,0,1"
              radius="0"
              unit="px"
              method="auto"
              mode="F"
              chamfer_steps="1"
              flexible="false"
              use_knot_distance="true"
              apply_no_radius="true"
              apply_with_radius="true"
              only_selected="false"
              hide_knots="false"/>
  </defs>
  <sodipodi:namedview
     id="namedview2"
     pagecolor="#ffffff"
     bordercolor="#111111"
     borderopacity="1"
     inkscape:showpageshadow="0"
     inkscape:pageopacity="0"
     inkscape:pagecheckerboard="1"
     inkscape:deskcolor="#d1d1d1"
     inkscape:zoom="2.1336947"
     inkscape:cx="104.51355"
     inkscape:cy="123.02603"
     inkscape:window-width="1680"
     inkscape:window-height="979"
     inkscape:window-x="-8"
     inkscape:window-y="-8"
     inkscape:window-maximized="1"
     inkscape:current-layer="svg2" />
    <g
            id="g1"
            style="fill:#4d4d4d;fill-opacity:1"
            transform="matrix(0.13333334,0,0,0.13333334,-0.10000016,-0.10000009)">
        <path
                id="path3"
                style="color:#000000;fill:#4d4d4d;fill-opacity:1;stroke-linecap:round;stroke-linejoin:round;-inkscape-stroke:none"
                d="M -22.916135,1.5663332 -23.221435,3.09 h -4.660928 c -0.497377,-2.266e-4 -0.900637,0.4030336 -0.90041,0.9004102 -1.94e-4,0.4973537 0.403056,0.9005781 0.90041,0.9003515 h 15.923847 c 0.496576,-8.728e-4 0.898613,-0.4037752 0.898418,-0.9003515 C -11.059871,3.4938109 -11.461917,3.0908728 -11.958516,3.09 h -4.662919 l -0.3053,-1.5236668 a 1.8303731,1.8303731 39.334791 0 0 -1.7947,-1.4707657 l -2.4,0 a 1.8303731,1.8303731 140.66521 0 0 -1.7947,1.4707657 z"
                sodipodi:nodetypes="ccccccccccc"
                inkscape:path-effect="#path-effect6"
                inkscape:original-d="m -22.621435,0.0955675 -0.6,2.9944325 h -4.660928 c -0.497377,-2.266e-4 -0.900637,0.4030336 -0.90041,0.9004102 -1.94e-4,0.4973537 0.403056,0.9005781 0.90041,0.9003515 h 15.923847 c 0.496576,-8.728e-4 0.898613,-0.4037752 0.898418,-0.9003515 C -11.059871,3.4938109 -11.461917,3.0908728 -11.958516,3.09 h -4.662919 l -0.6,-2.9944325 z"
                transform="matrix(1.2265409,0,0,1.2265409,36.434456,0.6327829)"/>
        <path
                id="rect6"
                style="fill:#4d4d4d;fill-opacity:1;stroke-width:2.49865;stroke-linecap:round;stroke-linejoin:round"
                d="M 5.9899262,7.9561676 A 2.1915376,2.1915376 0 0 0 3.8122651,10.393774 l 1.1786292,10.432018 a 2.7307857,2.7307857 0 0 0 2.7284546,2.424167 l 8.5613031,-0.04678 a 2.7624846,2.7624846 0 0 0 2.729749,-2.450836 L 20.186443,10.393558 A 2.1903493,2.1903493 0 0 0 18.010075,7.9561676 Z m 3.0652982,4.4891394 h 5.8883306 a 1.1038868,1.1038868 0 0 1 1.10439,1.10439 1.1038868,1.1038868 0 0 1 -1.10439,1.104319 H 9.0552244 a 1.1038868,1.1038868 0 0 1 -1.10439,-1.104319 1.1038868,1.1038868 0 0 1 1.10439,-1.10439 z m 0.7360684,4.108386 h 4.4150442 a 1.1038868,1.1038868 0 0 1 1.10439,1.10439 1.1038868,1.1038868 0 0 1 -1.10439,1.101947 H 9.7912928 a 1.1038868,1.1038868 0 0 1 -1.1043901,-1.101947 1.1038868,1.1038868 0 0 1 1.1043901,-1.10439 z"/>
    </g>
</svg>
