<svg width="100" height="101" viewBox="0 0 100 101" fill="none" xmlns="http://www.w3.org/2000/svg">
<path d="M76.3335 32C82.2109 32 85.15 32.0005 87.1802 33.373C88.3118 34.1383 89.2286 35.1804 89.8433 36.4004C90.9459 38.5889 90.5717 41.5036 89.8227 47.333L84.5806 88.1328C83.9867 92.7551 83.69 95.0669 82.4692 96.7314C81.7839 97.6658 80.9032 98.4402 79.8892 99.001C78.0826 99.9998 75.7518 100 71.0913 100H29.4936C24.8334 100 22.5033 99.9997 20.6968 99.001C19.6825 98.4402 18.8021 97.6659 18.1167 96.7314C16.8958 95.0669 16.5983 92.7554 16.0044 88.1328L10.7632 47.333C10.0142 41.5036 9.6391 38.5889 10.7417 36.4004C11.3564 35.1803 12.2739 34.1383 13.4058 33.373C15.4359 32.0005 18.3743 32 24.2515 32H76.3335ZM40.98 54.5879C40.7281 51.8382 38.2941 49.814 35.5444 50.0654C32.8807 50.3094 30.8961 52.6003 31.0034 55.2432L31.021 55.5L33.0151 77.2832C33.2668 80.033 35.6999 82.0592 38.4497 81.8076C41.1137 81.5637 43.0983 79.272 42.9907 76.6289L42.9731 76.373L40.98 54.5879ZM64.4497 50.0654C61.7 49.8139 59.266 51.8382 59.0142 54.5879L57.021 76.373L57.0034 76.6289C56.8958 79.272 58.8804 81.5637 61.5444 81.8076C64.2942 82.0591 66.7273 80.033 66.979 77.2832L68.9731 55.5L68.9907 55.2432C69.098 52.6003 67.1135 50.3094 64.4497 50.0654Z" fill="#4D4D4D"/>
<path d="M57.6143 0C61.3492 3.92915e-05 64.5871 2.58454 65.415 6.22656V6.22656C65.653 7.27333 65.772 7.79671 65.9507 8.24064C66.7366 10.1928 68.4878 11.5906 70.5656 11.9241C71.0381 12 71.5748 12 72.6483 12H94L94.3086 12.0078C97.4789 12.1684 100 14.7898 100 18C100 21.2102 97.4789 23.8316 94.3086 23.9922L94 24H6C2.68629 24 0 21.3137 0 18C0 14.6863 2.68629 12 6 12H28.3517C29.4252 12 29.9619 12 30.4344 11.9241C32.5122 11.5906 34.2634 10.1928 35.0493 8.24064C35.228 7.79671 35.347 7.27333 35.585 6.22656V6.22656C36.4129 2.58454 39.6508 3.98483e-05 43.3857 0H57.6143Z" fill="#4D4D4D"/>
</svg>
