<?xml version="1.0" encoding="UTF-8" standalone="no"?>
<!-- Uploaded to: SVG Repo, www.svgrepo.com, Generator: SVG Repo Mixer Tools -->

<svg
   width="100mm"
   height="100mm"
   viewBox="0 0 11.338583 11.338583"
   version="1.1"
   id="svg1"
   sodipodi:docname="connect.svg"
   inkscape:version="1.3.2 (091e20e, 2023-11-25, custom)"
   xmlns:inkscape="http://www.inkscape.org/namespaces/inkscape"
   xmlns:sodipodi="http://sodipodi.sourceforge.net/DTD/sodipodi-0.dtd"
   xmlns="http://www.w3.org/2000/svg"
   xmlns:svg="http://www.w3.org/2000/svg">
  <defs
     id="defs1" />
  <sodipodi:namedview
     id="namedview1"
     pagecolor="#ffffff"
     bordercolor="#111111"
     borderopacity="1"
     inkscape:showpageshadow="0"
     inkscape:pageopacity="0"
     inkscape:pagecheckerboard="1"
     inkscape:deskcolor="#d1d1d1"
     inkscape:zoom="1.3364318"
     inkscape:cx="216.6216"
     inkscape:cy="170.22941"
     inkscape:window-width="1680"
     inkscape:window-height="979"
     inkscape:window-x="-8"
     inkscape:window-y="-8"
     inkscape:window-maximized="1"
     inkscape:current-layer="svg1"
     inkscape:document-units="mm" />
    <g
            id="g1">
        <g
                id="g4"
                transform="translate(-0.67990875,0.43920195)"
                style="stroke:#4d4d4d;stroke-opacity:1;fill:#4d4d4d;fill-opacity:1">
            <path
                    style="fill:#4d4d4d;stroke:#4d4d4d;stroke-width:0.9;stroke-linecap:round;stroke-linejoin:round;stroke-dasharray:none;stroke-opacity:1;fill-opacity:1"
                    d="M 4.0532334,4.1447678 C 5.592916,5.6844505 5.577043,5.6685775 5.577043,5.6685775"
                    id="path2-2"/>
            <path
                    style="fill:#4d4d4d;stroke:#4d4d4d;stroke-width:0.9;stroke-linecap:round;stroke-linejoin:round;stroke-dasharray:none;stroke-opacity:1;fill-opacity:1"
                    d="M 5.2651382,2.932863 C 6.8048209,4.4725457 6.7889479,4.4566726 6.7889479,4.4566726"
                    id="path2-7"/>
        </g>
        <path
                id="rect3-9"
                style="fill:#4d4d4d;fill-opacity:1;fill-rule:evenodd;stroke-width:0.0473763"
                d="M 8.7294241,10.234375 A 1.5037101,1.5037101 0 0 0 10.233115,8.7306842 1.5037101,1.5037101 0 0 0 9.6821585,7.5716992 2.7386358,2.7386358 0 0 0 9.7474325,7.0099612 2.7386358,2.7386358 0 0 0 8.5402835,4.7399222 l -3.7991016,3.79916 A 2.7386358,2.7386358 0 0 0 7.00876,9.7485742 2.7386358,2.7386358 0 0 0 7.5721389,9.6829442 1.5037101,1.5037101 0 0 0 8.7294241,10.23437 Z"/>
        <path
                id="rect3"
                style="fill:#4d4d4d;fill-opacity:1;fill-rule:evenodd;stroke-width:0.0473763"
                d="m 2.6091587,1.1042102 a 1.5037101,1.5037101 0 0 0 -1.5036916,1.503691 1.5037101,1.5037101 0 0 0 0.5509572,1.158985 2.7386358,2.7386358 0 0 0 -0.065273,0.561738 2.7386358,2.7386358 0 0 0 1.2071485,2.270039 l 3.7991016,-3.79916 A 2.7386358,2.7386358 0 0 0 4.3298233,1.5900112 2.7386358,2.7386358 0 0 0 3.7664444,1.6556312 1.5037101,1.5037101 0 0 0 2.6091592,1.1042052 Z"/>
  </g>
</svg>
