<svg width="100" height="100" viewBox="0 0 100 100" fill="none" xmlns="http://www.w3.org/2000/svg">
<g clip-path="url(#clip0_2_2)">
<path fill-rule="evenodd" clip-rule="evenodd" d="M16.428 0C12.071 5.35783e-05 7.89255 1.73008 4.81171 4.8095C1.73088 7.88892 5.53414e-05 12.0655 0 16.4205C0.00706038 18.8433 0.550411 21.2345 1.59109 23.4226C2.63176 25.6108 4.14397 27.5416 6.01927 29.0767C5.57042 31.0914 5.33144 33.1471 5.30616 35.2109C5.30678 40.1062 6.50961 44.9264 8.80906 49.2485C11.1085 53.5707 14.4343 57.2625 18.4944 60L60 18.5128C57.2667 14.4535 53.5787 11.1267 49.2595 8.8239C44.9402 6.52114 40.1217 5.31285 35.2265 5.305C33.1555 5.33028 31.0928 5.57043 29.0715 6.02158C27.5382 4.14861 25.6096 2.63757 23.4239 1.59657C21.2381 0.555571 18.8492 0.0104125 16.428 0Z" fill="#4D4D4D"/>
<path fill-rule="evenodd" clip-rule="evenodd" d="M83.572 100C87.929 99.9999 92.1075 98.2699 95.1883 95.1905C98.2691 92.1111 99.9999 87.9345 100 83.5795C99.9929 81.1567 99.4496 78.7655 98.4089 76.5774C97.3682 74.3892 95.856 72.4584 93.9807 70.9233C94.4296 68.9086 94.6686 66.8529 94.6938 64.7891C94.6932 59.8938 93.4904 55.0736 91.1909 50.7515C88.8915 46.4293 85.5657 42.7375 81.5056 40L40 81.4872C42.7333 85.5465 46.4213 88.8733 50.7405 91.1761C55.0598 93.4789 59.8783 94.6872 64.7735 94.695C66.8445 94.6697 68.9072 94.4296 70.9285 93.9784C72.4618 95.8514 74.3904 97.3624 76.5761 98.4034C78.7619 99.4444 81.1508 99.9896 83.572 100Z" fill="#4D4D4D"/>
<path d="M44 29L57 42" stroke="#4D4D4D" stroke-width="10" stroke-linecap="round"/>
<path d="M29 44L42 57" stroke="#4D4D4D" stroke-width="10" stroke-linecap="round"/>
</g>
<defs>
<clipPath id="clip0_2_2">
<rect width="100" height="100" fill="white"/>
</clipPath>
</defs>
</svg>
