<?xml version="1.0" encoding="UTF-8" standalone="no"?>
<!-- Uploaded to: SVG Repo, www.svgrepo.com, Generator: SVG Repo Mixer Tools -->

<svg
   width="100mm"
   height="100mm"
   viewBox="0 0 11.338583 11.338583"
   version="1.1"
   id="svg1"
   sodipodi:docname="disconnect.svg"
   inkscape:version="1.3.2 (091e20e, 2023-11-25, custom)"
   xmlns:inkscape="http://www.inkscape.org/namespaces/inkscape"
   xmlns:sodipodi="http://sodipodi.sourceforge.net/DTD/sodipodi-0.dtd"
   xmlns="http://www.w3.org/2000/svg"
   xmlns:svg="http://www.w3.org/2000/svg">
  <defs
     id="defs1" />
  <sodipodi:namedview
     id="namedview1"
     pagecolor="#ffffff"
     bordercolor="#111111"
     borderopacity="1"
     inkscape:showpageshadow="0"
     inkscape:pageopacity="0"
     inkscape:pagecheckerboard="1"
     inkscape:deskcolor="#d1d1d1"
     inkscape:zoom="0.945"
     inkscape:cx="23.809524"
     inkscape:cy="373.01587"
     inkscape:window-width="1680"
     inkscape:window-height="979"
     inkscape:window-x="-8"
     inkscape:window-y="-8"
     inkscape:window-maximized="1"
     inkscape:current-layer="svg1"
     inkscape:document-units="mm" />
  <path
     id="rect3-9"
     style="fill:#4d4d4d;fill-opacity:1;fill-rule:evenodd;stroke-width:0.0473763;stroke:none"
     d="M 7.7962896,9.302444 A 1.5037101,1.5037101 0 0 0 9.2999805,7.7987532 1.5037101,1.5037101 0 0 0 8.749024,6.6397682 2.7386358,2.7386358 0 0 0 8.814298,6.0780302 2.7386358,2.7386358 0 0 0 7.607149,3.8079912 l -3.7991016,3.79916 a 2.7386358,2.7386358 0 0 0 2.2675781,1.209492 2.7386358,2.7386358 0 0 0 0.5633789,-0.06563 1.5037101,1.5037101 0 0 0 1.1572852,0.5514258 z" />
  <path
     id="rect3"
     style="fill:#4d4d4d;fill-opacity:1;fill-rule:evenodd;stroke-width:0.0473763;stroke:none"
     d="m 3.3789063,1.8726982 a 1.5037101,1.5037101 0 0 0 -1.5036916,1.503691 1.5037101,1.5037101 0 0 0 0.5509572,1.158985 2.7386358,2.7386358 0 0 0 -0.065273,0.561738 2.7386358,2.7386358 0 0 0 1.2071485,2.270039 L 7.367149,3.5679912 A 2.7386358,2.7386358 0 0 0 5.0995709,2.3584992 2.7386358,2.7386358 0 0 0 4.536192,2.4241192 1.5037101,1.5037101 0 0 0 3.3789068,1.8726932 Z" />
</svg>
