<svg width="100" height="100" viewBox="0 0 100 100" fill="none" xmlns="http://www.w3.org/2000/svg">
<path fill-rule="evenodd" clip-rule="evenodd" d="M25.428 9C21.071 9.00005 16.8925 10.7301 13.8117 13.8095C10.7309 16.8889 9.00006 21.0655 9 25.4205C9.00706 27.8433 9.55041 30.2345 10.5911 32.4226C11.6318 34.6108 13.144 36.5416 15.0193 38.0767C14.5704 40.0914 14.3314 42.1471 14.3062 44.2109C14.3068 49.1062 15.5096 53.9264 17.8091 58.2485C20.1085 62.5707 23.4343 66.2625 27.4944 69L69 27.5128C66.2667 23.4535 62.5787 20.1267 58.2595 17.8239C53.9402 15.5211 49.1217 14.3128 44.2265 14.305C42.1555 14.3303 40.0928 14.5704 38.0715 15.0216C36.5382 13.1486 34.6096 11.6376 32.4239 10.5966C30.2381 9.55557 27.8492 9.01041 25.428 9Z" fill="#4D4D4D"/>
<path fill-rule="evenodd" clip-rule="evenodd" d="M74.572 91C78.929 90.9999 83.1075 89.2699 86.1883 86.1905C89.2691 83.1111 90.9999 78.9345 91 74.5795C90.9929 72.1567 90.4496 69.7655 89.4089 67.5774C88.3682 65.3892 86.856 63.4584 84.9807 61.9233C85.4296 59.9086 85.6686 57.8529 85.6938 55.7891C85.6932 50.8938 84.4904 46.0736 82.1909 41.7515C79.8915 37.4293 76.5657 33.7375 72.5056 31L31 72.4872C33.7333 76.5465 37.4213 79.8733 41.7405 82.1761C46.0598 84.4789 50.8783 85.6872 55.7735 85.695C57.8445 85.6697 59.9072 85.4296 61.9285 84.9784C63.4618 86.8514 65.3904 88.3624 67.5761 89.4034C69.7619 90.4444 72.1508 90.9896 74.572 91Z" fill="#4D4D4D"/>
</svg>
