<svg width="100" height="100" viewBox="0 0 100 100" fill="none" xmlns="http://www.w3.org/2000/svg">
<path d="M58.8486 0C62.5616 4.23212e-05 66.1226 1.47511 68.748 4.10059L95.8994 31.252C98.5249 33.8774 100 37.4384 100 41.1514V86C100 93.732 93.732 100 86 100H79V71C79 64.9249 74.0751 60 68 60H31C24.9249 60 20 64.9249 20 71V100H14C6.26801 100 3.2215e-08 93.732 0 86V14C0 6.26801 6.26801 0 14 0H58.8486ZM68 68C69.6569 68 71 69.3431 71 71V100H28V71C28 69.3431 29.3431 68 31 68H68ZM27 25C23.134 25 20 28.134 20 32C20 35.866 23.134 39 27 39H47C50.866 39 54 35.866 54 32C54 28.134 50.866 25 47 25H27Z" fill="#4D4D4D"/>
</svg>
