<svg width="100" height="100" viewBox="0 0 100 100" fill="none" xmlns="http://www.w3.org/2000/svg">
<g clip-path="url(#clip0_2_73)">
<path d="M85 85L94 94" stroke="#4D4D4D" stroke-width="12" stroke-linecap="round"/>
<path d="M45 0C69.8528 0 90 20.1472 90 45C90 69.8528 69.8528 90 45 90C20.1472 90 0 69.8528 0 45C0 20.1472 20.1472 0 45 0ZM45 14.7207C41.5322 14.7207 38.7207 17.5322 38.7207 21V23.9111C31.62 26.0222 26.0203 31.6204 23.9092 38.7207H21C17.5322 38.7207 14.7207 41.5322 14.7207 45C14.7207 48.4678 17.5322 51.2793 21 51.2793H23.9092C26.0204 58.3792 31.6201 63.9767 38.7207 66.0879V69L38.7295 69.3232C38.8977 72.6408 41.6406 75.2793 45 75.2793C48.3594 75.2793 51.1023 72.6408 51.2705 69.3232L51.2793 69V66.0879C58.3799 63.9767 63.9796 58.3792 66.0908 51.2793H69L69.3232 51.2705C72.6408 51.1023 75.2793 48.3594 75.2793 45C75.2793 41.6406 72.6408 38.8977 69.3232 38.7295L69 38.7207H66.0908C63.9797 31.6204 58.38 26.0222 51.2793 23.9111V21C51.2793 17.5322 48.4678 14.7207 45 14.7207Z" fill="#4D4D4D"/>
<circle cx="45" cy="45" r="9" fill="#4D4D4D"/>
</g>
<defs>
<clipPath id="clip0_2_73">
<rect width="100" height="100" fill="white"/>
</clipPath>
</defs>
</svg>
