<?xml version="1.0" encoding="UTF-8" standalone="no"?>
<!-- Uploaded to: SVG Repo, www.svgrepo.com, Generator: SVG Repo Mixer Tools -->

<svg
   width="800px"
   height="800px"
   viewBox="0 0 24 24"
   fill="none"
   version="1.1"
   id="svg2"
   sodipodi:docname="reset.svg"
   xml:space="preserve"
   inkscape:version="1.3.2 (091e20e, 2023-11-25, custom)"
   xmlns:inkscape="http://www.inkscape.org/namespaces/inkscape"
   xmlns:sodipodi="http://sodipodi.sourceforge.net/DTD/sodipodi-0.dtd"
   xmlns="http://www.w3.org/2000/svg"
   xmlns:svg="http://www.w3.org/2000/svg"><defs
     id="defs2" /><sodipodi:namedview
     id="namedview2"
     pagecolor="#ffffff"
     bordercolor="#111111"
     borderopacity="1"
     inkscape:showpageshadow="0"
     inkscape:pageopacity="0"
     inkscape:pagecheckerboard="1"
     inkscape:deskcolor="#d1d1d1"
     inkscape:zoom="0.66821591"
     inkscape:cx="182.57572"
     inkscape:cy="552.96499"
     inkscape:window-width="1680"
     inkscape:window-height="997"
     inkscape:window-x="-8"
     inkscape:window-y="-8"
     inkscape:window-maximized="1"
     inkscape:current-layer="svg2" /><path
     id="path1"
     style="fill:#323232;fill-opacity:1"
     d="M 10.99998 4.0000195 C 7.1340115 4.0000195 4.0000195 7.1340115 4.0000195 10.99998 C 4.0000195 14.865965 7.1340115 18 10.99998 18 C 14.865965 18 18 14.865965 18 10.99998 C 18 7.1340115 14.865965 4.0000195 10.99998 4.0000195 z M 10.99998 6.1546289 C 11.41548 6.1546289 11.74998 6.4891305 11.74998 6.9046289 L 11.74998 7.7408203 C 12.992888 8.0257761 13.971757 9.0069997 14.259023 10.24998 L 15.095391 10.24998 C 15.51089 10.24998 15.845391 10.584481 15.845391 10.99998 C 15.845391 11.41548 15.51089 11.74998 15.095391 11.74998 L 14.259902 11.74998 C 13.974815 12.992399 12.993443 13.971116 11.74998 14.258262 L 11.74998 15.095391 C 11.74998 15.510888 11.41548 15.845391 10.99998 15.845391 C 10.584483 15.845391 10.24998 15.510888 10.24998 15.095391 L 10.24998 14.259141 C 9.0070862 13.974174 8.0282548 12.992959 7.7409961 11.74998 L 6.9046289 11.74998 C 6.4891297 11.74998 6.1546289 11.41548 6.1546289 10.99998 C 6.1546289 10.584482 6.4891297 10.24998 6.9046289 10.24998 L 7.7401172 10.24998 C 8.0251961 9.0075711 9.006529 8.0288952 10.24998 7.7417578 L 10.24998 6.9046289 C 10.24998 6.4891305 10.584484 6.1546289 10.99998 6.1546289 z M 10.99998 9.6939258 C 10.279985 9.6939258 9.6939258 10.279985 9.6939258 10.99998 C 9.6939258 11.71998 10.279985 12.306035 10.99998 12.306035 C 11.71998 12.306035 12.306035 11.71998 12.306035 10.99998 C 12.306035 10.279985 11.71998 9.6939258 10.99998 9.6939258 z " /><path
     d="M20 20L18 18"
     stroke="#222222"
     stroke-width="2"
     stroke-linecap="round"
     id="path2"
     style="fill:#323232;fill-opacity:1;stroke:#323232;stroke-opacity:1" /></svg>
