<?xml version="1.0" encoding="UTF-8" standalone="no"?>
<!-- Uploaded to: SVG Repo, www.svgrepo.com, Generator: SVG Repo Mixer Tools -->

<svg
        width="100"
        height="100"
        viewBox="0 0 3 3"
   fill="none"
   version="1.1"
   id="svg1"
   sodipodi:docname="rotate l.svg"
   inkscape:version="1.3.2 (091e20e, 2023-11-25, custom)"
   xmlns:inkscape="http://www.inkscape.org/namespaces/inkscape"
   xmlns:sodipodi="http://sodipodi.sourceforge.net/DTD/sodipodi-0.dtd"
   xmlns="http://www.w3.org/2000/svg"
   xmlns:svg="http://www.w3.org/2000/svg">
  <defs
     id="defs1" />
  <sodipodi:namedview
     id="namedview1"
     pagecolor="#ffffff"
     bordercolor="#111111"
     borderopacity="1"
     inkscape:showpageshadow="0"
     inkscape:pageopacity="0"
     inkscape:pagecheckerboard="1"
     inkscape:deskcolor="#d1d1d1"
     inkscape:zoom="2.6728636"
     inkscape:cx="93.158512"
     inkscape:cy="70.523613"
     inkscape:window-width="1680"
     inkscape:window-height="979"
     inkscape:window-x="-8"
     inkscape:window-y="-8"
     inkscape:window-maximized="1"
     inkscape:current-layer="svg1" />
    <g
            id="g2"
            transform="matrix(0.13333335,0,0,0.13333335,-1.0488948e-7,-0.10000018)">
        <path
                style="fill:none;stroke:#4d4d4d;stroke-width:2.5261;stroke-linecap:round;stroke-linejoin:round;stroke-dasharray:none;stroke-opacity:1"
                id="path2"
                sodipodi:type="arc"
                sodipodi:cx="-8.7539034"
                sodipodi:cy="-14.785586"
                sodipodi:rx="8.9547396"
                sodipodi:ry="8.9547396"
                sodipodi:start="0"
                sodipodi:end="4.8869219"
                sodipodi:arc-type="arc"
                d="m 0.20083618,-14.785586 a 8.9547396,8.9547396 0 0 1 -5.89203828,8.4147023 8.9547396,8.9547396 0 0 1 -9.9224299,-2.658707 8.9547396,8.9547396 0 0 1 -0.895303,-10.2333653 8.9547396,8.9547396 0 0 1 9.3100058,-4.341327"
                sodipodi:open="true"
                transform="rotate(165)"/>
        <path
                style="color:#000000;fill:#4d4d4d;fill-opacity:1;stroke-width:1.05254;stroke-linecap:round;stroke-linejoin:round;-inkscape-stroke:none"
                d="m 0.010715,16.109419 a 1.2631763,1.2631763 0 0 0 0.621662,1.258575 l 3.41823,1.973516 a 1.2631763,1.2631763 0 0 0 1.724235,-0.462007 l 1.973516,-3.41823 A 1.2631763,1.2631763 0 0 0 6.328672,13.611401 l -5.391746,1.444713 a 1.2631763,1.2631763 0 0 0 -0.926211,1.053305 z"
                id="path3"/>
    </g>
</svg>
