<?xml version="1.0" encoding="UTF-8" standalone="no"?>
<!-- Uploaded to: SVG Repo, www.svgrepo.com, Generator: SVG Repo Mixer Tools -->

<svg
   fill="#000000"
   width="800px"
   height="800px"
   viewBox="0 0 24 24"
   version="1.1"
   id="svg1"
   sodipodi:docname="undo-svgrepo-com.svg"
   inkscape:version="1.3.2 (091e20e, 2023-11-25, custom)"
   xmlns:inkscape="http://www.inkscape.org/namespaces/inkscape"
   xmlns:sodipodi="http://sodipodi.sourceforge.net/DTD/sodipodi-0.dtd"
   xmlns="http://www.w3.org/2000/svg"
   xmlns:svg="http://www.w3.org/2000/svg">
  <defs
     id="defs1" />
  <sodipodi:namedview
     id="namedview1"
     pagecolor="#ffffff"
     bordercolor="#111111"
     borderopacity="1"
     inkscape:showpageshadow="0"
     inkscape:pageopacity="0"
     inkscape:pagecheckerboard="1"
     inkscape:deskcolor="#d1d1d1"
     inkscape:zoom="0.945"
     inkscape:cx="400"
     inkscape:cy="399.4709"
     inkscape:window-width="1680"
     inkscape:window-height="997"
     inkscape:window-x="-8"
     inkscape:window-y="-8"
     inkscape:window-maximized="1"
     inkscape:current-layer="svg1" />
  <g
     id="Undo">
    <path
       d="M19.939,13.67A7.958,7.958,0,0,1,7.8,19.74a8.061,8.061,0,0,1-3.77-6.77.5.5,0,0,1,1,0,6.976,6.976,0,0,0,11,5.7,6.969,6.969,0,0,0-1-11.97,10.075,10.075,0,0,0-4.64-.69V7.46a.5.5,0,0,1-.81.39L7.109,5.9a.5.5,0,0,1,0-.79L9.6,3.17a.5.5,0,0,1,.8.4V5.01c.71-.01,1.43-.03,2.13.02a7.985,7.985,0,0,1,7.41,8.64Z"
       id="path1" />
  </g>
  <circle
     style="fill:#000000;fill-opacity:1;stroke:none;stroke-width:0.215433;stroke-linecap:round;stroke-linejoin:round;stroke-miterlimit:15"
     id="path2"
     cx="11.999236"
     cy="13.027514"
     r="1.02" />
</svg>
