<svg width="100" height="100" viewBox="0 0 100 100" fill="none" xmlns="http://www.w3.org/2000/svg">
<g clip-path="url(#clip0_2_18)">
<path d="M15.6252 60.1402C13.5794 52.5054 13.9322 44.426 16.6355 36.9986C19.3389 29.5711 24.262 23.1552 30.7367 18.6216C37.2114 14.088 44.9241 11.6561 52.8283 11.6561C60.7324 11.6561 68.4452 14.088 74.9199 18.6216C81.3946 23.1552 86.3177 29.5711 89.021 36.9986C91.7244 44.426 92.0772 52.5054 90.0314 60.1402C87.9857 67.775 83.6405 74.5956 77.5856 79.6762C71.5307 84.7569 64.0592 87.8517 56.1851 88.5406" stroke="#4D4D4D" stroke-width="12" stroke-linecap="round" stroke-linejoin="round"/>
<path d="M0.0460893 67.7776C-0.0935932 68.8432 0.0858922 69.9263 0.561842 70.8898C1.03779 71.8534 1.78882 72.6542 2.71994 73.1909L17.4222 81.6792C18.6694 82.3981 20.1509 82.5925 21.5414 82.22C22.9319 81.8474 24.1177 80.9382 24.8384 79.6921L33.3267 64.9898C33.8608 64.0598 34.1076 62.9925 34.0362 61.9224C33.9648 60.8523 33.5782 59.8273 32.9253 58.9765C32.2723 58.1257 31.3822 57.4872 30.367 57.1414C29.3518 56.7956 28.257 56.758 27.2205 57.0333L4.02985 63.2472C2.99247 63.5242 2.06042 64.1023 1.35139 64.9086C0.642358 65.715 0.188141 66.7133 0.0460893 67.7776Z" fill="#4D4D4D"/>
</g>
<defs>
<clipPath id="clip0_2_18">
<rect width="100" height="100" fill="white"/>
</clipPath>
</defs>
</svg>
