<svg width="100" height="100" viewBox="0 0 100 100" fill="none" xmlns="http://www.w3.org/2000/svg">
<path d="M84.3748 60.1402C86.4206 52.5054 86.0678 44.426 83.3645 36.9986C80.6611 29.5711 75.738 23.1552 69.2633 18.6216C62.7886 14.088 55.0759 11.6561 47.1717 11.6561C39.2676 11.6561 31.5548 14.088 25.0801 18.6216C18.6054 23.1552 13.6823 29.5711 10.979 36.9986C8.2756 44.426 7.92284 52.5054 9.96859 60.1402C12.0143 67.775 16.3595 74.5956 22.4144 79.6762C28.4693 84.7569 35.9408 87.8517 43.8149 88.5406" stroke="#4D4D4D" stroke-width="12" stroke-linecap="round" stroke-linejoin="round"/>
<path d="M99.9538 67.7776C100.094 68.8432 99.914 69.9262 99.4381 70.8898C98.9621 71.8534 98.2111 72.6542 97.28 73.1909L82.5777 81.6792C81.3305 82.398 79.849 82.5925 78.4585 82.22C77.068 81.8474 75.8823 80.9382 75.1616 79.6921L66.6732 64.9898C66.1391 64.0598 65.8923 62.9925 65.9637 61.9224C66.0352 60.8523 66.4217 59.8273 67.0746 58.9765C67.7276 58.1257 68.6177 57.4872 69.6329 57.1414C70.6481 56.7956 71.7429 56.758 72.7795 57.0333L95.9701 63.2472C97.0075 63.5242 97.9395 64.1023 98.6485 64.9086C99.3576 65.715 99.8118 66.7133 99.9538 67.7776Z" fill="#4D4D4D"/>
</svg>
