<svg width="100" height="100" viewBox="0 0 100 100" fill="none" xmlns="http://www.w3.org/2000/svg">
<path d="M78.3433 34.2463C88.2473 39.94 93.1993 42.7869 94.474 46.6934C95.1753 48.8425 95.1753 51.1575 94.474 53.3066C93.1993 57.2131 88.2473 60.06 78.3433 65.7537L32.403 92.1643C22.499 97.858 17.547 100.705 13.512 99.8509C11.2922 99.381 9.27875 98.2235 7.76023 96.5442C5 93.4917 5 87.798 5 76.4106V23.5894C5 12.202 5 6.50825 7.76023 3.45577C9.27875 1.77647 11.2922 0.618961 13.512 0.149139C17.547 -0.704863 22.499 2.142 32.403 7.83571L78.3433 34.2463Z" fill="#4D4D4D"/>
</svg>
