<?xml version="1.0" encoding="UTF-8" standalone="no"?>
<!-- Uploaded to: SVG Repo, www.svgrepo.com, Generator: SVG Repo Mixer Tools -->

<svg
   fill="#000000"
   width="800px"
   height="800px"
   viewBox="0 0 24 24"
   version="1.1"
   id="svg1"
   sodipodi:docname="start.svg"
   inkscape:version="1.3.2 (091e20e, 2023-11-25, custom)"
   xmlns:inkscape="http://www.inkscape.org/namespaces/inkscape"
   xmlns:sodipodi="http://sodipodi.sourceforge.net/DTD/sodipodi-0.dtd"
   xmlns="http://www.w3.org/2000/svg"
   xmlns:svg="http://www.w3.org/2000/svg">
  <defs
     id="defs1" />
  <sodipodi:namedview
     id="namedview1"
     pagecolor="#ffffff"
     bordercolor="#111111"
     borderopacity="1"
     inkscape:showpageshadow="0"
     inkscape:pageopacity="0"
     inkscape:pagecheckerboard="1"
     inkscape:deskcolor="#d1d1d1"
     inkscape:zoom="0.945"
     inkscape:cx="400"
     inkscape:cy="399.4709"
     inkscape:window-width="1680"
     inkscape:window-height="997"
     inkscape:window-x="-8"
     inkscape:window-y="-8"
     inkscape:window-maximized="1"
     inkscape:current-layer="svg1" />
  <g
     id="Play_1"
     data-name="Play 1"
     style="fill:#009903;fill-opacity:1">
    <path
       d="M6.562,21.94a2.5,2.5,0,0,1-2.5-2.5V4.56A2.5,2.5,0,0,1,7.978,2.5L18.855,9.939a2.5,2.5,0,0,1,0,4.12L7.977,21.5A2.5,2.5,0,0,1,6.562,21.94Zm0-18.884a1.494,1.494,0,0,0-.7.177,1.477,1.477,0,0,0-.8,1.327V19.439a1.5,1.5,0,0,0,2.35,1.235l10.877-7.44a1.5,1.5,0,0,0,0-2.471L7.413,3.326A1.491,1.491,0,0,0,6.564,3.056Z"
       id="path1"
       style="fill:#009903;fill-opacity:1" />
  </g>
</svg>
