<svg width="100" height="101" viewBox="0 0 100 101" fill="none" xmlns="http://www.w3.org/2000/svg">
<g clip-path="url(#clip0_27_25)">
<path d="M85.0141 52.5656C86.9762 45.2432 86.6379 37.4944 84.0451 30.3708C81.4523 23.2473 76.7307 17.0939 70.5209 12.7458C64.3111 8.39764 56.9139 6.06531 49.3332 6.06531C41.7524 6.06531 34.3553 8.39764 28.1455 12.7458" stroke="#4D4D4D" stroke-width="12" stroke-linecap="round" stroke-linejoin="round"/>
<path d="M99.9553 59.6895C100.091 60.732 99.9168 61.7916 99.4555 62.7343C98.9942 63.677 98.2662 64.4604 97.3638 64.9855L83.1142 73.2899C81.9054 73.9931 80.4695 74.1834 79.1218 73.8189C77.7741 73.4544 76.6249 72.5649 75.9263 71.3458L67.6993 56.9622C67.1817 56.0523 66.9425 55.0082 67.0117 53.9613C67.0809 52.9144 67.4556 51.9116 68.0884 51.0792C68.7213 50.2469 69.584 49.6222 70.5679 49.2839C71.5519 48.9456 72.613 48.9088 73.6176 49.1781L96.0942 55.2573C97.0997 55.5283 98.003 56.0939 98.6902 56.8828C99.3774 57.6716 99.8177 58.6483 99.9553 59.6895Z" fill="#4D4D4D"/>
<path d="M14.9859 48.3539C13.0238 55.6764 13.3621 63.4252 15.9549 70.5487C18.5477 77.6723 23.2693 83.8257 29.4791 88.1738C35.6889 92.5219 43.0861 94.8542 50.6668 94.8542C58.2476 94.8542 65.6447 92.5219 71.8545 88.1738" stroke="#4D4D4D" stroke-width="12" stroke-linecap="round" stroke-linejoin="round"/>
<path d="M0.044671 41.3105C-0.0907109 40.268 0.0832494 39.2084 0.544546 38.2657C1.00584 37.323 1.73375 36.5396 2.6362 36.0145L16.8858 27.7101C18.0946 27.0069 19.5305 26.8166 20.8782 27.1811C22.2259 27.5456 23.3751 28.4351 24.0737 29.6542L32.3007 44.0378C32.8183 44.9477 33.0575 45.9918 32.9883 47.0387C32.9191 48.0856 32.5444 49.0884 31.9116 49.9208C31.2787 50.7531 30.416 51.3778 29.4321 51.7161C28.4481 52.0544 27.387 52.0912 26.3824 51.8219L3.90578 45.7427C2.90034 45.4717 1.99698 44.9061 1.30978 44.1172C0.622583 43.3284 0.182349 42.3517 0.044671 41.3105Z" fill="#4D4D4D"/>
</g>
<defs>
<clipPath id="clip0_27_25">
<rect width="100" height="101" fill="white"/>
</clipPath>
</defs>
</svg>
