<?xml version="1.0" encoding="UTF-8" standalone="no"?>
<!-- Created with Inkscape (http://www.inkscape.org/) -->

<svg
   width="100mm"
   height="100mm"
   viewBox="0 0 100 100"
   version="1.1"
   id="svg1"
   xml:space="preserve"
   inkscape:version="1.3.2 (091e20e, 2023-11-25, custom)"
   sodipodi:docname="icon.svg"
   inkscape:export-filename="Logo.png"
   inkscape:export-xdpi="96"
   inkscape:export-ydpi="96"
   xmlns:inkscape="http://www.inkscape.org/namespaces/inkscape"
   xmlns:sodipodi="http://sodipodi.sourceforge.net/DTD/sodipodi-0.dtd"
   xmlns="http://www.w3.org/2000/svg"
   xmlns:svg="http://www.w3.org/2000/svg"><sodipodi:namedview
     id="namedview1"
     pagecolor="#505050"
     bordercolor="#ffffff"
     borderopacity="1"
     inkscape:showpageshadow="0"
     inkscape:pageopacity="0"
     inkscape:pagecheckerboard="1"
     inkscape:deskcolor="#d1d1d1"
     inkscape:document-units="mm"
     inkscape:zoom="0.68"
     inkscape:cx="130.88235"
     inkscape:cy="93.382353"
     inkscape:window-width="1366"
     inkscape:window-height="715"
     inkscape:window-x="-8"
     inkscape:window-y="-8"
     inkscape:window-maximized="1"
     inkscape:current-layer="layer1" /><defs
     id="defs1"><inkscape:path-effect
       effect="fillet_chamfer"
       id="path-effect2"
       is_visible="true"
       lpeversion="1"
       nodesatellites_param="F,0,0,1,0,0,0,1 @ F,0,0,1,0,0,0,1 @ F,0,0,1,0,0,0,1 @ F,0,0,1,0,0,0,1 @ F,0,0,1,0,0,0,1 @ F,0,0,1,0,0,0,1 @ F,0,0,1,0,0,0,1 @ F,0,0,1,0,5.8,0,1 @ F,0,0,1,0,0,0,1"
       radius="0"
       unit="px"
       method="auto"
       mode="F"
       chamfer_steps="1"
       flexible="false"
       use_knot_distance="true"
       apply_no_radius="true"
       apply_with_radius="true"
       only_selected="false"
       hide_knots="false" /></defs><g
     inkscape:label="Слой 1"
     inkscape:groupmode="layer"
     id="layer1"><rect
       style="fill:#05bd23;fill-opacity:1;stroke-width:0.434782"
       id="rect3"
       width="100"
       height="100"
       x="0"
       y="0"
       rx="13.043479"
       ry="13.043479" /><path
       id="rect1"
       style="fill:#f6f6f6;fill-opacity:1;stroke-width:0.264583"
       d="M 5.8208333,0 C 2.596095,0 0,2.596095 0,5.8208333 V 61.9125 c 0,3.224738 2.596095,5.820833 5.8208333,5.820833 H 37.629643 c 3.224738,0 5.820833,-2.596095 5.820833,-5.820833 0,-3.224738 -2.596095,-5.820833 -5.820833,-5.820833 H 17.441667 a 5.8,5.8 45 0 1 -5.8,-5.8 V 5.8208333 C 11.641667,2.596095 9.0455717,0 5.8208333,0 Z"
       inkscape:path-effect="#path-effect2"
       inkscape:original-d="M 5.8208333,0 C 2.596095,0 0,2.596095 0,5.8208333 V 61.9125 c 0,3.224738 2.596095,5.820833 5.8208333,5.820833 H 37.629643 c 3.224738,0 5.820833,-2.596095 5.820833,-5.820833 0,-3.224738 -2.596095,-5.820833 -5.820833,-5.820833 H 11.641667 V 5.8208333 C 11.641667,2.596095 9.0455717,0 5.8208333,0 Z"
       transform="matrix(1.1554222,0,0,1.1554263,10.869563,10.869564)"
       sodipodi:nodetypes="ssssssscss" /><path
       id="rect2"
       style="fill:#666166;fill-opacity:1;stroke-width:0.305706"
       d="m 43.885753,11.255876 c -3.725935,0 -6.72552,2.999596 -6.72552,6.725545 v 38.519024 c 0,0.0363 0.0047,0.07132 0.0055,0.107466 -0.02916,1.756225 0.624514,3.521562 1.970369,4.86742 2.634633,2.634643 6.876867,2.634643 9.511499,0 l 4.781426,-4.78144 0.0035,-0.0035 2.996748,-2.997355 30.725191,-30.724703 c 2.634633,-2.634642 2.634633,-6.876891 0,-9.511533 -2.634635,-2.634643 -6.876867,-2.634643 -9.511499,0 L 50.611274,40.488469 V 17.981421 c 0,-3.725949 -2.999585,-6.725545 -6.725521,-6.725545 z" /></g></svg>
